<svg xmlns="http://www.w3.org/2000/svg" xmlns:xlink="http://www.w3.org/1999/xlink" width="150" zoomAndPan="magnify" viewBox="0 0 112.5 112.499997" height="150" preserveAspectRatio="xMidYMid meet" version="1.0"><defs><clipPath id="6d34ea42db"><path d="M 44.996094 28.019531 L 66.648438 28.019531 L 66.648438 63.113281 L 44.996094 63.113281 Z M 44.996094 28.019531 " clip-rule="nonzero"/></clipPath></defs><g clip-path="url(#6d34ea42db)"><path fill="#33cc33" d="M 55.820312 61.832031 C 57.019531 61.175781 62.179688 58.070312 64.546875 52.285156 C 63.621094 52.3125 62.183594 52.96875 60.378906 54.378906 C 58.597656 55.773438 56.511719 57.902344 54.28125 60.875 C 54.972656 61.351562 55.523438 61.667969 55.820312 61.832031 Z M 58.15625 46.1875 L 56.386719 47.101562 L 56.386719 50.617188 C 57.738281 49.457031 59.171875 48.78125 60.519531 48.429688 C 63.210938 47.726562 65.613281 48.320312 66.335938 48.804688 L 66.648438 49.011719 L 66.578125 49.386719 C 64.847656 58.621094 56.097656 62.972656 56.074219 62.984375 L 55.820312 63.109375 L 55.570312 62.984375 C 55.546875 62.972656 46.792969 58.621094 45.066406 49.386719 L 44.996094 49.011719 L 45.304688 48.804688 C 46.03125 48.320312 48.433594 47.726562 51.125 48.429688 C 52.472656 48.78125 53.90625 49.457031 55.257812 50.617188 L 55.257812 42.152344 C 54.15625 41.445312 53.230469 40.472656 52.574219 39.328125 C 51.890625 38.125 51.496094 36.734375 51.496094 35.253906 C 51.496094 33.773438 51.890625 32.382812 52.574219 31.179688 C 53.285156 29.941406 54.308594 28.902344 55.535156 28.1875 L 55.820312 28.023438 L 56.101562 28.1875 C 57.332031 28.902344 58.359375 29.941406 59.066406 31.179688 C 59.753906 32.382812 60.148438 33.773438 60.148438 35.253906 C 60.148438 36.734375 59.753906 38.125 59.066406 39.328125 C 58.410156 40.472656 57.488281 41.445312 56.386719 42.152344 L 56.386719 45.824219 L 57.605469 45.195312 C 57.652344 44.355469 57.886719 43.53125 58.292969 42.796875 C 58.746094 41.988281 59.40625 41.28125 60.253906 40.765625 C 61.105469 40.257812 62.035156 40.011719 62.957031 39.996094 C 63.910156 39.988281 64.855469 40.230469 65.6875 40.695312 L 65.972656 40.855469 L 65.976562 41.1875 C 65.992188 42.152344 65.746094 43.105469 65.285156 43.945312 C 64.832031 44.753906 64.167969 45.460938 63.320312 45.972656 C 62.472656 46.480469 61.542969 46.730469 60.617188 46.738281 C 59.769531 46.753906 58.921875 46.5625 58.15625 46.1875 Z M 52.90625 45.203125 C 52.867188 44.558594 52.679688 43.925781 52.367188 43.355469 C 52.007812 42.714844 51.484375 42.152344 50.808594 41.746094 C 50.136719 41.339844 49.398438 41.144531 48.671875 41.132812 C 48.027344 41.125 47.386719 41.265625 46.800781 41.539062 C 46.84375 42.1875 47.027344 42.816406 47.34375 43.386719 C 47.699219 44.027344 48.222656 44.589844 48.894531 44.992188 C 49.574219 45.394531 50.308594 45.59375 51.039062 45.605469 C 51.683594 45.613281 52.324219 45.476562 52.90625 45.203125 Z M 53.351562 42.796875 C 53.8125 43.636719 54.054688 44.589844 54.042969 45.550781 L 54.039062 45.882812 L 53.753906 46.042969 C 52.921875 46.515625 51.976562 46.753906 51.023438 46.746094 C 50.101562 46.730469 49.171875 46.480469 48.320312 45.972656 C 47.46875 45.460938 46.8125 44.753906 46.359375 43.945312 C 45.890625 43.105469 45.652344 42.152344 45.667969 41.1875 L 45.667969 40.855469 L 45.953125 40.695312 C 46.785156 40.230469 47.730469 39.984375 48.683594 39.996094 C 49.609375 40.011719 50.539062 40.257812 51.382812 40.765625 C 52.234375 41.28125 52.898438 41.988281 53.351562 42.796875 Z M 59.277344 43.355469 C 58.960938 43.925781 58.777344 44.558594 58.738281 45.203125 C 59.320312 45.476562 59.960938 45.613281 60.605469 45.605469 C 61.332031 45.59375 62.070312 45.394531 62.742188 44.992188 C 63.417969 44.589844 63.941406 44.027344 64.300781 43.386719 C 64.613281 42.816406 64.800781 42.1875 64.839844 41.539062 C 64.257812 41.265625 63.617188 41.125 62.972656 41.132812 C 62.246094 41.144531 61.507812 41.339844 60.828125 41.746094 C 60.160156 42.152344 59.632812 42.714844 59.277344 43.355469 Z M 53.550781 38.761719 C 53.992188 39.53125 54.570312 40.207031 55.257812 40.757812 L 55.257812 35.988281 L 56.386719 35.988281 L 56.386719 40.757812 C 57.074219 40.207031 57.652344 39.53125 58.09375 38.761719 C 58.679688 37.734375 59.015625 36.535156 59.015625 35.253906 C 59.015625 33.976562 58.679688 32.777344 58.09375 31.746094 C 57.535156 30.78125 56.757812 29.953125 55.820312 29.347656 C 54.886719 29.953125 54.109375 30.78125 53.550781 31.746094 C 52.964844 32.777344 52.628906 33.976562 52.628906 35.253906 C 52.628906 36.535156 52.964844 37.734375 53.550781 38.761719 Z M 46.679688 51.171875 C 47.394531 51.109375 48.300781 51.320312 49.34375 51.832031 C 50.375 52.339844 51.582031 53.15625 52.902344 54.316406 C 53.976562 53.101562 54.652344 52.359375 55.03125 51.953125 C 53.679688 50.621094 52.207031 49.890625 50.84375 49.53125 C 48.824219 49.003906 47.074219 49.257812 46.257812 49.589844 C 46.371094 50.136719 46.519531 50.664062 46.679688 51.171875 Z M 52.15625 55.171875 C 50.917969 54.085938 49.800781 53.328125 48.847656 52.855469 C 48.148438 52.511719 47.558594 52.332031 47.097656 52.300781 C 47.917969 54.296875 49.074219 55.972656 50.28125 57.34375 C 50.988281 56.515625 51.609375 55.792969 52.15625 55.171875 Z M 64.953125 51.183594 C 65.121094 50.667969 65.265625 50.140625 65.386719 49.589844 C 64.566406 49.257812 62.8125 49.003906 60.800781 49.53125 C 59.304688 49.921875 57.691406 50.757812 56.234375 52.339844 L 56.21875 52.355469 L 56.210938 52.371094 L 55.820312 52.789062 L 55.8125 52.785156 C 55.171875 53.46875 53.71875 55.0625 51.058594 58.175781 C 51.855469 58.984375 52.652344 59.660156 53.363281 60.207031 C 55.667969 57.136719 57.832031 54.933594 59.6875 53.476562 C 61.882812 51.761719 63.730469 51.058594 64.953125 51.183594 Z M 64.953125 51.183594 " fill-opacity="1" fill-rule="evenodd"/></g></svg>